<?xml version="1.0" encoding="UTF-8" standalone="no"?>
<!-- Created with Inkscape (http://www.inkscape.org/) -->

<svg
   width="147.59958mm"
   height="158.40901mm"
   viewBox="0 0 147.59958 158.40901"
   version="1.1"
   id="svg1"
   xml:space="preserve"
   sodipodi:docname="skyitlogo.svg"
   inkscape:version="1.3.2 (091e20e, 2023-11-25, custom)"
   inkscape:export-filename="skyitlogo.svg"
   inkscape:export-xdpi="96"
   inkscape:export-ydpi="96"
   xmlns:inkscape="http://www.inkscape.org/namespaces/inkscape"
   xmlns:sodipodi="http://sodipodi.sourceforge.net/DTD/sodipodi-0.dtd"
   xmlns="http://www.w3.org/2000/svg"
   xmlns:svg="http://www.w3.org/2000/svg"><sodipodi:namedview
     id="namedview1"
     pagecolor="#ffffff"
     bordercolor="#000000"
     borderopacity="0.25"
     inkscape:showpageshadow="2"
     inkscape:pageopacity="0.0"
     inkscape:pagecheckerboard="0"
     inkscape:deskcolor="#d1d1d1"
     inkscape:document-units="mm"
     inkscape:zoom="0.4759624"
     inkscape:cx="1173.412"
     inkscape:cy="605.08981"
     inkscape:window-width="1920"
     inkscape:window-height="1002"
     inkscape:window-x="-8"
     inkscape:window-y="-8"
     inkscape:window-maximized="1"
     inkscape:current-layer="svg1" /><defs
     id="defs1" /><g
     id="layer2"
     style="display:inline"
     transform="translate(-30.862164,-38.823321)"><path
       style="display:inline;fill:#0369a1;fill-opacity:1;stroke-width:0.264583"
       d="m 114.7835,180.78861 c 3.2347,0.97731 3.04285,-0.035 9.81094,2.99396 -0.73697,3.64695 -2.39516,5.6948 -2.67152,8.1067 -0.0464,3.4056 2.4111,4.56139 3.91517,5.34305 -0.2923,-1.16687 -1.4958,-2.19557 -1.01336,-4.37578 0.32217,-1.37481 3.80609,-5.51295 5.5273,-6.58669 l 5.34305,-0.27637 1.93455,2.53335 c 0.70937,3.35863 0.34363,4.83392 1.0594,5.89578 0.42423,-1.47489 0.9877,-3.13182 0.82909,-5.80366 0.88409,0.32982 1.58706,0.97661 1.98062,2.16486 0.86078,-0.88502 0.77304,-2.62371 0.41454,-4.60608 l 1.61213,0.27636 c 0.49394,0.98623 0.10671,1.79622 0.0461,2.67153 1.77553,-0.52272 2.10758,-1.96403 2.57941,-3.31638 0.83633,-1.69856 -1.62714,-2.34915 -4.00729,-3.36244 -1.90774,-0.76378 -4.34976,-0.99329 -6.86306,-1.15152 -2.29503,0.005 -4.61143,0.0134 -7.50791,0.13819 l -12.85096,-2.99396 z"
       id="path9" /><path
       style="display:inline;fill:#0369a1;fill-opacity:1;stroke-width:0.264583"
       d="m 68.169974,131.11205 c -3.333266,1.9714 -7.338894,4.07401 -10.617012,4.9976 -2.780354,0.60696 -2.299347,0.83531 -3.961228,-1.24365 0.544867,1.7634 -0.344374,4.05961 2.970919,5.2279 1.228289,0.10885 2.456577,0.20215 3.684866,-0.5297 3.578533,-1.80153 5.789817,-5.08424 7.922455,-8.45215 z"
       id="path7" /><path
       style="display:inline;fill:#0369a1;fill-opacity:1;stroke-width:0.264583"
       d="m 67.028853,108.8486 c -10.178216,-0.91389 -16.924922,-3.81444 -23.906305,-6.57912 0.616764,4.03427 2.492927,7.43884 7.947054,9.05443 10.082388,1.14207 13.797068,-0.34599 15.959251,-2.47531 z"
       id="path5" /><path
       style="display:inline;fill:#0369a1;fill-opacity:1;stroke-width:0.264583"
       d="m 120.63891,135.49078 c 2.84248,-5.56548 -1.76532,-16.51479 -17.85659,-24.20253 C 77.778447,99.342446 40.712119,87.747905 36.478287,40.907795 40.518186,59.854874 61.288517,73.368054 72.956575,78.949435 67.21396,66.049971 58.930077,56.807991 62.013088,38.82332 63.909522,54.008337 70.998815,68.68471 74.252724,73.086659 88.476685,92.3291 102.4102,96.639791 115.3448,105.79668 c 13.62739,9.64734 13.17,17.63728 5.29411,29.6941 z"
       id="path3" /><path
       style="fill:#0369a1;fill-opacity:1;stroke-width:0.264583"
       d="M 71.262941,101.35753 C 58.800207,93.233299 39.868419,75.128607 31.136825,60.840572 29.65885,65.39927 34.24336,79.920367 42.536289,87.417611 53.230298,96.888739 62.791442,99.721276 71.262941,101.35753 Z"
       id="path4" /><path
       style="fill:#0369a1;fill-opacity:1;stroke-width:0.264583"
       d="m 67.340881,120.44898 c -2.999087,3.16771 -4.673189,7.10576 -12.66672,7.36972 -5.786278,-0.17353 -7.188409,-3.58711 -4.513957,-6.26427 0.916153,1.69452 1.123304,2.1911 3.224256,2.44123 6.06586,-0.52999 9.30741,-2.33569 13.956421,-3.54668 z"
       id="path6" /><path
       style="fill:#0369a1;fill-opacity:1;stroke-width:0.264583"
       d="m 92.498516,126.56663 c -7.188983,27.35782 -3.374749,36.49037 4.950623,44.3602 9.979181,5.73512 16.992111,7.15569 25.274241,10.42237 -11.76183,0.0721 -21.14483,-3.82579 -26.837595,-6.51398 -9.959692,-4.72093 -18.475035,-9.69556 -20.779598,-21.56128 -0.43946,-5.07596 -1.656663,-15.68812 17.392329,-26.70731 z"
       id="path8" /><path
       style="fill:#0369a1;fill-opacity:1;stroke-width:0.264583"
       d="m 150.25031,154.11941 c -7.7316,-4.08434 -13.69027,-11.53725 -18.97705,-20.26674 0.65281,-0.69831 1.40974,-1.2925 1.56607,-2.48729 -2.14718,-2.34306 -3.76092,-6.81987 -5.43518,-11.05459 1.32041,0.15608 2.64082,0.82475 3.96123,0.0921 -2.16215,-2.64262 -1.90939,-6.89519 -2.76364,-10.40974 5.25105,2.33357 10.53618,4.61602 14.83157,8.38307 1.02053,-0.15418 2.4013,0.17196 2.02668,-1.84243 9.77736,6.51955 8.38771,6.5419 11.42307,9.21216 1.11873,0.20083 1.05787,-1.17054 0.9854,-2.17372 9.15143,7.02825 13.00506,15.77493 18.32661,23.25376 l -1.3483,1.76611 c 1.09486,1.35698 1.79278,2.63092 3.31638,4.6982 0.25277,1.64634 0.4226,4.94237 0.18424,5.9879 -0.19775,1.4003 -0.34348,2.98776 -1.56606,3.77699 -1.32041,0.71837 -2.64082,0.69287 -3.96123,0.18424 -0.77833,-0.55337 -1.14804,-1.23702 -2.30304,-2.48728 -0.79301,-1.58774 -15.35882,-11.24419 -15.75279,-12.25217 -0.52984,-0.32736 -1.33747,-0.28434 -2.1188,-0.27637 z"
       id="path10" /><path
       style="display:inline;fill:#ffffff;fill-opacity:1;stroke-width:0.264583"
       d="m 165.58864,143.13585 2.89872,2.77075 0.12701,1.47219 -3.97353,-3.7781 z"
       id="path11" /></g></svg>
