<svg xmlns="http://www.w3.org/2000/svg" xmlns:xlink="http://www.w3.org/1999/xlink" id="Layer_1" x="0px" y="0px" viewBox="0 0 719.3 524.6" style="enable-background:new 0 0 719.3 524.6;" xml:space="preserve"><style type="text/css">	.st0{fill:none;}	.st1{fill:#235AA4;}	.st2{fill:#032557;}	.st3{fill:#1E4080;}</style><g>	<g>		<path class="st0" d="M327.9,98.2c8.5,1.7,17.1,2.6,25.8,2.7c1.7,0,2.3-1,2.3-2.6   c0.1-12.5,0.1-24.8,0.1-37.1c0-0.2-0.2-0.4-0.4-0.4c-0.1,0-0.2,0-0.2,0.1c-12.7,8.9-22.4,20.3-29.1,34.2   C325.5,96.9,325.9,97.8,327.9,98.2"></path>		<path class="st0" d="M418.9,91.5c2.2-0.9,4.5-1.8,6.9-2.9c0.4-0.2,0.5-0.6,0.4-1   c0-0.1-0.1-0.1-0.1-0.2c-12.3-13.3-27.5-22.2-45.5-26.4c-0.3-0.1-0.5-0.1-0.8-0.1c-0.1,0-0.2,0.1-0.2,0.3c0,0.1,0,0.1,0.1,0.1   c5.8,6.1,11.1,12.6,15.8,19.4c1.9,2.8,3.4,5.5,4.3,8.3C403,98.9,412.8,94,418.9,91.5"></path>		<path class="st0" d="M394.1,94.4c-6.2-12.2-16.4-26.2-28.7-32.8c-0.2-0.1-0.4,0-0.5,0.2   c0,0.1,0,0.1,0,0.2c0,11.9,0,23.9-0.1,36c0,2.1,0.9,3.1,2.8,3c8.7-0.3,17.4-1.3,26.3-2.9c0.7-0.1,1.1-0.8,1-1.4   C394.7,96,394.5,95.2,394.1,94.4"></path>		<path class="st0" d="M297.5,90c5.4,2.1,10.9,3.8,16.5,5.2c0.7,0.2,1.3,0.2,1.8,0.1   c0.8-0.2,1.4-0.6,1.6-1.1c4.8-10.4,11.3-19.9,19.4-28.5c0.8-0.9,1.1-1.9,0.7-3.2c-0.1-0.2-0.3-0.4-0.5-0.4c-1.2,0-2.7,0.3-4.5,0.9   c-14.9,4.8-27.6,13-38.1,24.5c-0.3,0.3-0.2,0.7,0.1,1c0,0,0.1,0,0.1,0.1C295.6,89.1,296.5,89.6,297.5,90"></path>		<path class="st0" d="M449.2,138.8c-1.8-13.9-5.7-26.4-12.9-37.9c-2.2-3.5-3.1-6-7.5-4.3   c-5.3,2-11.4,4.1-18.3,6.2c-1.2,0.3-2,1-2.5,1.9c-0.1,0.2-0.1,0.5-0.1,0.7c2.4,6.9,4.2,14,5.6,21.2c0.7,3.6,0.6,7.3,0.7,11   c0.2,7.1,7.5,6.2,13.2,5.8c6.4-0.5,12.5-0.1,19.6-0.2C450.2,143.2,449.5,140.9,449.2,138.8"></path>		<path class="st0" d="M298.7,99.2c-3.1-1.3-7.9-3.5-10.4-2.9c-2.2,0.5-4.2,4.7-5.5,7   c-6.6,11.9-10.5,24.3-11.6,37.3c-0.1,1.3,0.7,2.7,2,2.7c9.3,0,18.6,0,27.9,0.1c2.5,0,4.1-0.5,4.3-3.2c0.7-11.3,2.8-22.1,6.4-32.3   c0.9-2.6,0.7-4.7-2.2-5.4C305.2,101.6,300.8,100.1,298.7,99.2"></path>		<path class="st0" d="M319.1,112.3c-2.8,9.6-4.6,18.9-5.3,28.1c0,0.6,0.1,1.2,0.5,1.8   c1.3,2,5.1,1.1,6.9,1.1c8.6,0,17.2,0,25.8,0c1.8,0,4.6,0.3,6.8,0.1c1.1-0.1,1.9-1,2-2.1c0.1-9.6,0.1-19.1,0-28.4   c0-2.2-0.6-3.2-2.9-3.3c-10-0.4-19.4-1.5-28.2-3.3C320.7,105.4,320,109.2,319.1,112.3"></path>		<path class="st0" d="M406.6,138.8c-1-9.6-2.7-20.3-6.1-29.3c-1.1-2.8-2.1-3.6-5.3-3   c-9.5,1.8-19.1,2.9-28.7,3.3c-0.2,0-0.4,0.1-0.6,0.2c-0.8,0.6-1.1,1.2-1.1,1.9c0,9.3,0,18.6,0,27.9c0,4.5,2.5,3.8,6.1,3.7   c11.1-0.1,22.1-0.1,33.2,0.1C406.8,143.6,406.9,140.8,406.6,138.8"></path>		<path class="st0" d="M211,184.3c-2.2,0.8-4.5,0.2-6.3,0.2c-30,0-59.9,0-89.5-0.1   c-1,0-1.9,0.8-1.9,1.9c0,0.1,0,0.2,0,0.2c2.3,17.6,13.6,34.1,31.4,38.5c2.4,0.6,5.6,0.9,9.5,0.8c36.8-0.4,61.3-0.4,73.5-0.2   c9.6,0.2,15.8,0.3,18.8,0.3c4.4,0,4.5,6.2-0.2,6.2c-26.7,0-53.4,0-80.1,0c-4.2,0-5.7,0.3-4.7,5c3.1,15,12.8,31.1,28.7,35.1   c2.7,0.7,4.8,1,6.2,1c23.6-0.4,47.1-0.4,70.7-0.1c2,0,4,0.1,6.1,0.2c2.1,0.1,4,1,3.5,3.4c-0.6,3.1-5.2,2.8-7.7,2.8   c-8.3,0-26.7,0-55.2,0.1c-1.9,0-2.5,0.9-2,2.6c0,0.1,0.1,0.3,0.2,0.4c18.9,30.4,52,43,86.9,39c19-2.1,35.6-9.5,49.6-22   c15.6-13.9,28.4-26,38.5-36.3c7.9-8,15.3-16.7,22.2-26c0.3-0.4,0.2-1-0.2-1.3c-0.3-0.2-0.6-0.2-0.9-0.1c-3.8,1.7-7.8,3.3-12,5   c-15.8,6.3-32.1,8.3-48.9,6c-17.3-2.3-33-9-47.2-19.9c-22.3-17.1-35.5-42.6-37.8-70.6c-0.9-10.4,0.5-21.1,2.7-31.3   c0.6-2.9-0.8-3.7-3.4-3.7c-64.6,0-129.3,0-193.9,0c-1.5,0-3.3,0.8-3.6,2.2c-4.8,18.1,6.1,37.9,21.1,47.9   c6.7,4.4,13.5,6.4,21.4,6.4c29,0,58,0,87,0c3.7,0,10.2,0.5,15.4,0c3.7-0.3,4,3.6,2.8,5.9C211.4,184,211.2,184.2,211,184.3"></path>		<path class="st0" d="M471,230.1c-0.7-2.7,1.3-4.2,3.8-4.2c12.9,0,25.9,0,38.8,0   c5.7,0,13.2-0.4,19.8-0.3c12.7,0.3,19.5,0.3,29.3,0.3c6,0,10.5-0.3,13.5-1c17.3-4.1,27.8-19.6,30.9-36.5c0.5-2.8-0.9-3.9-3.5-3.9   c-30.3,0-60.5,0-90.8,0c-1.1,0-3-0.1-3.9-1.1c-2.5-2.8,0.5-5.5,3.3-5.5c32.7-0.1,65.4-0.9,98.1,0.4c4.5,0.2,8,0,10.5-0.5   c21.1-4.3,39.4-28.1,36.6-49.9c-0.5-4.3-1.6-6.4-6.3-6.4c-64.7,0-129.5,0-194.6,0c-0.6,0-0.9,0.3-1,0.9c-0.2,1.2,0.6,3,0.7,4   c1.6,8.6,2.4,15.7,2.5,21.4c0.4,20-5.7,39.2-16.6,56.2c-7.6,11.9-16.4,23.4-26.2,34.3c-15.6,17.4-31.8,33.4-48.5,48   c-1.4,1.2-3.3,3-3.3,5c0,2.5,3.9,5.8,6.3,7.8c23.5,19.9,50.9,26.1,81,21.4c23.9-3.8,42.7-16.1,56.4-37c1.6-2.5,0.8-4-2.1-4   c-19.1,0.1-38.1,0.2-57.2,0.1c-3,0-6.5-1.8-4.4-5c0.9-1.3,3.6-1.8,4.8-1.7c4.2,0.5,9.2,0,12.4,0c18.4-0.2,36.8-0.1,55.3,0.2   c5.8,0.1,10-0.2,12.7-0.8c16.6-3.9,26.9-20.2,29.7-36.1c0.3-1.9,0.1-4.1-2.3-4.1c-27.7,0-55.4,0-83.1,0   C472.8,232.2,471.4,231.3,471,230.1"></path>		<path class="st0" d="M293,201.5c5.3-2.3,10.8-4.4,16.4-5.6c3.7-0.8,3.2-3.5,2.1-6.4   c-3.2-8.7-5-17.6-5.3-26.9c-0.1-2.6-0.3-4.2-0.7-5c-1.8-3.8-7.8-3.2-11.4-2.9c-6.1,0.5-11.8,0.2-17.7,0.1   c-3.9-0.1-5.6,0.6-5.1,4.9c2,14.7,6.6,27.8,13.8,39.3C287.1,202.1,289.7,203,293,201.5"></path>		<path class="st0" d="M320.3,190c0.7,1.9,1.9,2.7,3.7,2.4c11.6-2.1,21.6-3.2,30.2-3.4   c0.2,0,0.4-0.1,0.6-0.2c0.8-0.6,1.2-1.2,1.2-1.7c0.1-9.5,0.1-19.4,0-29.5c0-1.4-1.1-2.5-2.5-2.5c-12,0-24.2,0-36.5,0.1   c-2.1,0-3.1,1-3,3.1C314.5,168.8,316.6,179.4,320.3,190"></path>		<path class="st0" d="M400.2,189.6c3.3-9.3,5.4-18.9,6.3-28.8c0.3-3.4,1.2-5.8-3.5-5.8   c-11.8,0-23.7,0-35.7,0c-1.3,0-2.4,1.1-2.4,2.4c0,9.6,0,19.2,0.1,28.9c0,1.7,0.7,2.5,2.2,2.6c10,0.5,18.7,1.4,26.1,2.7   C396.6,192.3,398.9,193.2,400.2,189.6"></path>		<path class="st0" d="M434.2,200.8c8.6-12.3,13.6-27.3,15.1-42.2c0.2-2.3-0.2-3.6-2.8-3.6   c-13.5,0-23,0-28.6,0c-1.4,0-2.3,0.7-2.6,2.1c-0.6,3-0.6,6.5-0.9,9c-1.2,9-3.2,17.8-6.2,26.5c-0.5,1.5,0.1,2.4,1.7,2.9   c5.2,1.6,11.6,3.7,19.2,6.5C431.3,202.8,432.9,202.7,434.2,200.8"></path>		<path class="st0" d="M326.7,204.4c7,13.1,16,24.5,28.5,32.8c0.3,0.2,0.6,0.1,0.8-0.2   c0.1-0.1,0.1-0.2,0.1-0.3c0-11.9,0-24,0-36.1c0-0.8-0.1-1.6-0.3-2.4c-0.1-0.2-0.2-0.4-0.5-0.5c-1.1-0.2-2-0.3-2.8-0.2   c-8.3,0.8-16.7,1.7-25.1,2.7c-0.5,0.1-1,0.4-1.1,0.9C325.9,202.2,326.1,203.3,326.7,204.4"></path>		<path class="st0" d="M394.1,204.2c0.6-1.1,0.8-2,0.7-2.8c-0.1-0.6-0.5-1.1-1.1-1.2   c-8.6-1-17.1-2-25.5-2.8c-0.7-0.1-1.6,0.1-2.3,0.2c-0.3,0-0.4,0.2-0.5,0.4c-0.3,0.7-0.4,1.5-0.4,2.3c0,12.1,0,24.2-0.1,36.2   c0,0.2,0.2,0.5,0.5,0.4c0.1,0,0.2,0,0.2-0.1C377.4,230.2,387.9,216.3,394.1,204.2"></path>		<path class="st0" d="M337.6,236.3c0.3,0.2,0.6,0.3,0.8,0.3c0.4,0,0.7-0.4,0.6-0.8   c0-0.2-0.1-0.3-0.2-0.4c-8.6-9.2-15.7-19.4-21.2-30.5c-1.3-2.7-2.7-1.9-5.3-1.2c-6.1,1.6-12,3.6-17.8,6.1   c-0.2,0.1-0.3,0.4-0.2,0.6c0,0,0,0.1,0.1,0.1c11.4,12.9,25.6,21.4,42.4,25.4C337,236.1,337.3,236.2,337.6,236.3"></path>		<path class="st0" d="M400.9,208.7c-5.2,9.8-11.7,18.8-19.3,26.9c-0.1,0.2-0.2,0.3-0.2,0.5   l0,0.3c0,0.1,0.1,0.3,0.3,0.2c0,0,0,0,0,0c17.7-4,32.5-12.6,44.5-26.1c0.2-0.2,0.1-0.5,0-0.6c0,0-0.1-0.1-0.1-0.1   c-6.5-2.8-13.1-5.1-19.9-6.7C403.3,202.5,402,206.8,400.9,208.7"></path>	</g>	<path class="st1" d="M327.9,98.2c-2-0.4-2.4-1.4-1.5-3.2c6.7-13.8,16.4-25.2,29.1-34.2c0.2-0.1,0.4-0.1,0.5,0.1  c0,0.1,0.1,0.1,0.1,0.2c0,12.3,0,24.7-0.1,37.1c0,1.6-0.6,2.6-2.3,2.6C345,100.8,336.4,99.9,327.9,98.2z"></path>	<path class="st1" d="M418.9,91.5c-6.2,2.4-15.9,7.3-19.1-2.4c-0.9-2.8-2.3-5.5-4.3-8.3c-4.8-6.8-10-13.2-15.8-19.4  c-0.1-0.1-0.1-0.2,0-0.3c0,0,0.1-0.1,0.1-0.1c0.2,0,0.5,0,0.8,0.1c18,4.3,33.2,13.1,45.5,26.4c0.3,0.3,0.3,0.8,0,1  c-0.1,0.1-0.1,0.1-0.2,0.1C423.5,89.7,421.2,90.7,418.9,91.5z"></path>	<path class="st1" d="M394.1,94.4c0.4,0.8,0.7,1.6,0.8,2.3c0.1,0.7-0.4,1.3-1,1.4c-8.8,1.6-17.6,2.6-26.3,2.9  c-1.9,0.1-2.8-0.9-2.8-3c0.1-12.1,0.1-24.1,0.1-36c0-0.2,0.2-0.4,0.4-0.4c0.1,0,0.1,0,0.2,0C377.7,68.2,387.8,82.2,394.1,94.4z"></path>	<path class="st1" d="M297.5,90c-1-0.4-1.9-0.8-2.8-1.4c-0.3-0.2-0.4-0.6-0.2-0.9c0,0,0-0.1,0.1-0.1C305,76,317.7,67.9,332.6,63.1  c1.8-0.6,3.3-0.9,4.5-0.9c0.3,0,0.5,0.2,0.5,0.4c0.3,1.2,0.1,2.3-0.7,3.2c-8.1,8.6-14.6,18.1-19.4,28.5c-0.3,0.5-0.8,0.9-1.6,1.1  c-0.5,0.1-1.1,0.1-1.8-0.1C308.4,93.8,302.9,92,297.5,90z"></path>	<path class="st1" d="M436.3,100.9c7.2,11.5,11.1,24,12.9,37.9c0.3,2.1,1,4.4-2.1,4.5c-7.1,0.1-13.2-0.3-19.6,0.2  c-5.7,0.4-13,1.3-13.2-5.8c-0.1-3.7-0.1-7.4-0.7-11c-1.3-7.2-3.2-14.3-5.6-21.2c-0.1-0.2-0.1-0.5,0.1-0.7c0.5-0.9,1.3-1.5,2.5-1.9  c6.9-2.1,13-4.1,18.3-6.2C433.2,95,434.1,97.4,436.3,100.9z"></path>	<path class="st1" d="M298.7,99.2c2,0.9,6.4,2.4,10.8,3.4c3,0.7,3.1,2.8,2.2,5.4c-3.6,10.2-5.7,21-6.4,32.3  c-0.2,2.7-1.8,3.2-4.3,3.2c-9.3-0.1-18.6-0.2-27.9-0.1c-1.3,0-2.1-1.4-2-2.7c1.2-13,5-25.4,11.6-37.3c1.3-2.3,3.3-6.5,5.5-7  C290.8,95.7,295.6,97.9,298.7,99.2z"></path>	<path class="st1" d="M319.1,112.3c0.9-3.1,1.6-6.9,5.8-6c8.7,1.8,18.1,2.9,28.2,3.3c2.4,0.1,2.9,1.1,2.9,3.3  c0.1,9.3,0.1,18.8,0,28.4c0,1.1-0.9,2-2,2.1c-2.2,0.2-5-0.1-6.8-0.1c-8.6,0-17.2,0-25.8,0c-1.9,0-5.6,0.9-6.9-1.1  c-0.4-0.6-0.6-1.2-0.5-1.8C314.5,131.3,316.3,121.9,319.1,112.3z"></path>	<path class="st1" d="M400.5,109.4c3.4,9.1,5.1,19.7,6.1,29.3c0.2,2.1,0.2,4.8-2.6,4.8c-11.1-0.2-22.1-0.3-33.2-0.1  c-3.6,0-6.1,0.8-6.1-3.7c0-9.3,0-18.6,0-27.9c0-0.7,0.4-1.3,1.1-1.9c0.2-0.1,0.4-0.2,0.6-0.2c9.7-0.4,19.2-1.5,28.7-3.3  C398.5,105.8,399.5,106.6,400.5,109.4z"></path>	<path class="st2" d="M211.5,183.8c1.2-2.3,0.8-6.2-2.8-5.9c-5.2,0.4-11.7,0-15.4,0c-29,0-58,0-87,0c-7.9,0-14.7-1.9-21.4-6.4  c-15.1-9.9-25.9-29.8-21.1-47.9c0.4-1.4,2.1-2.2,3.6-2.2c64.6,0,129.3,0,193.9,0c2.7,0,4.1,0.8,3.4,3.7  c-2.3,10.3-3.6,20.9-2.7,31.3c2.3,27.9,15.5,53.4,37.8,70.6c14.2,10.9,29.9,17.6,47.2,19.9c16.9,2.3,33.2,0.3,48.9-6  c4.2-1.7,8.2-3.4,12-5c0.5-0.2,1,0,1.2,0.5c0.1,0.3,0.1,0.6-0.1,0.9c-6.9,9.3-14.3,18-22.2,26c-10.1,10.2-22.9,22.3-38.5,36.3  c-14,12.5-30.5,19.9-49.6,22c-34.9,3.9-67.9-8.6-86.9-39c-0.1-0.1-0.1-0.2-0.2-0.4c-0.6-1.7,0.1-2.5,2-2.6  c28.5-0.1,46.9-0.1,55.2-0.1c2.5,0,7.1,0.4,7.7-2.8c0.5-2.4-1.4-3.3-3.5-3.4c-2-0.1-4-0.2-6.1-0.2c-23.6-0.3-47.1-0.3-70.7,0.1  c-1.4,0-3.5-0.3-6.2-1c-15.9-4-25.6-20.1-28.7-35.1c-1-4.7,0.5-5,4.7-5c26.7,0,53.4,0,80.1,0c4.7,0,4.6-6.2,0.2-6.2  c-3,0-9.3-0.1-18.8-0.3c-12.1-0.3-36.6-0.2-73.5,0.2c-3.9,0-7.1-0.2-9.5-0.8c-17.8-4.4-29.1-21-31.4-38.5c-0.1-1,0.6-2,1.6-2.1  c0.1,0,0.2,0,0.2,0c29.7,0.1,59.5,0.1,89.5,0.1c1.8,0,4.1,0.5,6.3-0.2C211.2,184.2,211.4,184,211.5,183.8z"></path>	<path class="st3" d="M471,230.1c0.3,1.2,1.7,2.1,2.8,2.1c27.7,0.1,55.4,0.1,83.1,0c2.4,0,2.6,2.2,2.3,4.1  c-2.8,15.9-13.1,32.3-29.7,36.1c-2.7,0.6-6.9,0.9-12.7,0.8c-18.4-0.3-36.9-0.4-55.3-0.2c-3.2,0-8.2,0.5-12.4,0  c-1.2-0.1-3.9,0.4-4.8,1.7c-2.1,3.1,1.4,4.9,4.4,5c19.1,0.1,38.1,0,57.2-0.1c2.9,0,3.7,1.5,2.1,4c-13.6,20.9-32.4,33.2-56.4,37  c-30.2,4.7-57.5-1.5-81-21.4c-2.4-2-6.3-5.3-6.3-7.8c0-1.9,1.9-3.8,3.3-5c16.7-14.6,32.9-30.6,48.5-48c9.8-11,18.6-22.4,26.2-34.3  c10.9-17,17-36.3,16.6-56.2c-0.1-5.7-1-12.8-2.5-21.4c-0.2-1-1-2.8-0.7-4c0.1-0.6,0.4-0.9,1-0.9c65.1,0,130,0,194.6,0  c4.6,0,5.7,2.1,6.3,6.4c2.8,21.8-15.5,45.6-36.6,49.9c-2.5,0.5-6,0.7-10.5,0.5c-32.6-1.2-65.4-0.5-98.1-0.4c-2.8,0-5.8,2.7-3.3,5.5  c0.9,1,2.8,1.1,3.9,1.1c30.3,0,60.5,0,90.8,0c2.6,0,4.1,1.1,3.5,3.9c-3.2,16.9-13.6,32.4-30.9,36.5c-3,0.7-7.4,1-13.5,1  c-9.8,0-16.7,0-29.3-0.3c-6.6-0.1-14.1,0.3-19.8,0.3c-12.9,0-25.9,0-38.8,0C472.3,226,470.3,227.5,471,230.1z"></path>	<path class="st1" d="M309.4,195.9c-5.7,1.2-11.1,3.3-16.4,5.6c-3.3,1.4-5.8,0.6-7.7-2.4c-7.2-11.6-11.9-24.7-13.8-39.3  c-0.6-4.3,1.2-5,5.1-4.9c5.9,0.1,11.6,0.5,17.7-0.1c3.5-0.3,9.5-0.9,11.4,2.9c0.4,0.8,0.6,2.4,0.7,5c0.3,9.3,2.1,18.2,5.3,26.9  C312.6,192.5,313.1,195.2,309.4,195.9z"></path>	<path class="st1" d="M320.3,190c-3.7-10.5-5.8-21.1-6.3-31.8c-0.1-2,0.9-3.1,3-3.1c12.3-0.1,24.5-0.1,36.5-0.1  c1.4,0,2.5,1.1,2.5,2.5c0.1,10.1,0.1,19.9,0,29.5c0,0.6-0.4,1.1-1.2,1.7c-0.2,0.1-0.4,0.2-0.6,0.2c-8.5,0.2-18.6,1.4-30.2,3.4  C322.2,192.6,321,191.9,320.3,190z"></path>	<path class="st1" d="M400.2,189.6c-1.3,3.6-3.6,2.7-7.1,2.1c-7.4-1.3-16.1-2.2-26.1-2.7c-1.4-0.1-2.2-0.9-2.2-2.6  c0-9.7-0.1-19.4-0.1-28.9c0-1.3,1.1-2.4,2.4-2.4c12.1,0,24,0,35.7,0c4.7,0,3.8,2.4,3.5,5.8C405.6,170.7,403.5,180.2,400.2,189.6z"></path>	<path class="st1" d="M449.4,158.7c-1.5,14.9-6.5,29.9-15.1,42.2c-1.3,1.9-2.9,2-5,1.2c-7.6-2.8-14-5-19.2-6.5  c-1.6-0.5-2.2-1.4-1.7-2.9c2.9-8.6,5-17.5,6.2-26.5c0.3-2.5,0.3-6,0.9-9c0.3-1.4,1.2-2.1,2.6-2.1c5.6,0,15.1,0,28.6,0  C449.1,155,449.6,156.3,449.4,158.7z"></path>	<path class="st1" d="M326.7,204.4c-0.6-1.1-0.7-2.1-0.4-3.2c0.1-0.5,0.6-0.9,1.1-0.9c8.4-1,16.8-1.9,25.1-2.7  c0.8-0.1,1.7,0,2.8,0.2c0.3,0.1,0.4,0.2,0.5,0.5c0.2,0.8,0.3,1.6,0.3,2.4c0.1,12.2,0.1,24.2,0,36.1c0,0.3-0.3,0.6-0.6,0.6  c-0.1,0-0.2,0-0.3-0.1C342.6,228.9,333.6,217.4,326.7,204.4z"></path>	<path class="st1" d="M394.1,204.2c-6.2,12-16.7,26-28.7,32.8c-0.2,0.1-0.5,0-0.6-0.2c0-0.1-0.1-0.1-0.1-0.2c0-12,0.1-24.1,0.1-36.2  c0-0.8,0.2-1.6,0.4-2.3c0.1-0.3,0.3-0.4,0.5-0.4c0.7-0.1,1.6-0.3,2.3-0.2c8.4,0.8,16.9,1.7,25.5,2.8c0.6,0.1,1.1,0.6,1.1,1.2  C394.9,202.2,394.7,203.1,394.1,204.2z"></path>	<path class="st1" d="M336.8,236c-16.9-4-31-12.5-42.4-25.4c-0.2-0.2-0.2-0.5,0-0.7c0,0,0.1-0.1,0.1-0.1c5.8-2.5,11.7-4.6,17.8-6.1  c2.6-0.7,4-1.5,5.3,1.2c5.5,11.1,12.6,21.3,21.2,30.5c0.3,0.3,0.2,0.7,0,1c-0.1,0.1-0.3,0.2-0.4,0.2c-0.2,0-0.5-0.1-0.8-0.3  C337.3,236.2,337,236.1,336.8,236z"></path>	<path class="st1" d="M400.9,208.7c1-2,2.3-6.3,5.3-5.6c6.8,1.7,13.5,3.9,19.9,6.7c0.2,0.1,0.3,0.4,0.2,0.6c0,0,0,0.1-0.1,0.1  c-12,13.4-26.9,22.1-44.5,26.1c-0.1,0-0.3-0.1-0.3-0.2c0,0,0,0,0,0l0-0.3c0-0.2,0-0.4,0.2-0.5C389.3,227.5,395.7,218.6,400.9,208.7  z"></path></g><g>	<polygon class="st2" points="105.7,413.8 124.5,413.8 124.5,464.4 137.3,464.4 137.3,413.8 156.1,413.8 156.1,403.1 105.7,403.1    "></polygon>	<path class="st2" d="M200.3,440.4c3.3-1.6,5.9-3.8,7.6-6.7c1.8-2.9,2.6-6.4,2.6-10.5c0-4-0.9-7.6-2.6-10.6c-1.7-3-4.2-5.3-7.5-7  c-3.3-1.6-7.2-2.5-11.9-2.5h-24.2v61.3h13v-21.7h9.5l11.6,21.7h14.3l-13-23.8C199.9,440.5,200.1,440.4,200.3,440.4z M177.4,413.7  h8.7c2.5,0,4.6,0.4,6.2,1.1c1.6,0.7,2.9,1.8,3.7,3.2c0.8,1.4,1.2,3.1,1.2,5.1c0,2-0.4,3.7-1.2,5.1s-2,2.4-3.7,3.1  c-1.6,0.7-3.7,1-6.2,1h-8.8V413.7z"></path>	<path class="st2" d="M237.5,403.1l-21.2,61.3h13.9l4.5-14h22.1l4.5,14h13.9l-21.1-61.3H237.5z M238.1,440.3l7.5-23.2h0.5l7.5,23.2  H238.1z"></path>	<path class="st2" d="M320.5,406.8c-4.4-2.4-9.8-3.7-15.9-3.7h-21.9v61.3h21.7c6.2,0,11.6-1.2,16.1-3.7c4.5-2.5,7.9-6,10.3-10.6  c2.4-4.6,3.6-10.1,3.6-16.5c0-6.4-1.2-11.8-3.6-16.4C328.4,412.7,325,409.2,320.5,406.8z M319.5,444.9c-1.3,2.9-3.3,5-5.9,6.4  c-2.6,1.4-5.9,2-9.7,2h-8.2v-39.1h8.3c3.8,0,7.1,0.7,9.7,2c2.6,1.4,4.6,3.5,5.9,6.3c1.3,2.9,2,6.6,2,11.1  C321.5,438.3,320.8,442,319.5,444.9z"></path>	<polygon class="st2" points="357,439.1 383.2,439.1 383.2,428.4 357,428.4 357,413.8 385.3,413.8 385.3,403.1 344,403.1 344,464.4   385.4,464.4 385.4,453.7 357,453.7  "></polygon>	<polygon class="st2" points="415.2,464.4 428.1,464.4 428.1,439.1 453,439.1 453,428.4 428.1,428.4 428.1,413.8 455.7,413.8   455.7,403.1 415.2,403.1  "></polygon>	<polygon class="st2" points="477.4,403.1 464.4,403.1 464.4,464.4 503.7,464.4 503.7,453.7 477.4,453.7  "></polygon>	<polygon class="st2" points="525.2,439.1 551.4,439.1 551.4,428.4 525.2,428.4 525.2,413.8 553.5,413.8 553.5,403.1 512.3,403.1   512.3,464.4 553.7,464.4 553.7,453.7 525.2,453.7  "></polygon>	<polygon class="st2" points="597.2,433.8 615.9,403.1 601.3,403.1 588.9,424 588.4,424 576,403.1 561.3,403.1 580.1,433.8   561,464.4 575.8,464.4 588.4,443.5 588.9,443.5 601.4,464.4 616.3,464.4  "></polygon></g></svg>